<?xml version="1.0" standalone="no"?>
<!DOCTYPE svg PUBLIC "-//W3C//DTD SVG 20010904//EN"
 "http://www.w3.org/TR/2001/REC-SVG-20010904/DTD/svg10.dtd">
<svg version="1.0" xmlns="http://www.w3.org/2000/svg"
 width="500.000000pt" height="423.000000pt" viewBox="0 0 482.000000 423.000000"
 preserveAspectRatio="xMidYMid meet">

<g transform="translate(0.000000,423.000000) scale(0.100000,-0.100000)"
fill="#1890ff" stroke="none">
<path d="M1638 4042 l-218 -2 0 -430 0 -430 -432 -2 -433 -3 -3 -1057 -2
-1058 432 -2 433 -3 3 -433 2 -432 487 2 486 3 0 75 0 75 -399 3 c-219 1 -404
4 -411 7 -9 3 -12 79 -12 297 0 161 -1 353 -1 426 l0 132 -425 0 c-332 0 -427
3 -430 13 -8 25 -12 1763 -4 1785 l9 22 355 0 c199 -1 357 -5 360 -10 3 -5 3
-45 -1 -89 l-7 -81 -268 0 -269 0 -1 -657 c0 -362 0 -685 -1 -718 0 -33 0 -65
1 -72 1 -9 100 -12 419 -12 229 0 423 -1 430 -1 9 0 12 -93 12 -430 l0 -429
63 -3 c34 -2 178 -2 319 0 l258 3 2 442 3 442 85 0 85 0 0 -610 0 -610 485 0
485 0 5 430 5 430 430 5 430 5 0 1055 0 1055 -430 5 -430 5 -3 428 -2 427 -73
0 c-39 0 -418 1 -842 3 -423 1 -868 1 -987 -1z m1725 -148 l27 -6 0 -319 c0
-196 -4 -319 -10 -319 -5 0 -32 13 -60 30 -28 16 -62 33 -75 36 -14 3 -27 10
-30 14 -3 5 -6 92 -6 194 l-1 186 -729 0 -729 0 0 -190 c0 -173 -2 -191 -17
-196 -37 -12 -89 -37 -115 -55 -14 -11 -31 -19 -37 -19 -15 0 -15 622 0 637
12 12 1727 18 1782 7z m-807 -605 c4 -7 7 -28 8 -48 1 -36 1 -36 49 -39 l47
-3 0 -84 0 -84 -47 -3 c-50 -3 -50 -2 -52 -65 l-1 -33 -79 0 c-87 0 -91 3 -91
66 0 34 0 34 -45 34 l-45 0 0 85 0 85 45 0 45 0 0 38 c0 21 5 43 10 48 15 15
147 17 156 3z m-430 -122 c33 -38 32 -86 -2 -118 -24 -22 -35 -24 -162 -29
-75 -3 -144 -9 -153 -14 -9 -4 -24 -22 -33 -39 -16 -29 -17 -66 -14 -342 3
-305 3 -311 28 -365 59 -131 193 -284 329 -374 99 -66 233 -126 308 -139 54
-9 75 -8 129 6 229 60 467 243 583 450 56 100 61 132 61 452 l0 291 -29 34
-29 35 -138 5 c-77 3 -147 10 -158 14 -23 11 -44 61 -38 91 2 13 15 34 29 47
22 21 36 23 136 26 177 6 277 -26 340 -110 54 -70 57 -94 57 -437 0 -348 -4
-383 -61 -494 -73 -145 -173 -261 -313 -366 -177 -133 -351 -209 -496 -218
-74 -4 -96 -1 -170 22 -102 33 -170 66 -287 141 -213 137 -363 315 -428 507
-25 75 -25 79 -25 405 0 221 4 340 11 363 17 48 73 115 123 144 56 33 127 44
264 42 111 -2 114 -3 138 -30z m2132 -1036 c1 -652 -1 -897 -9 -907 -9 -11
-90 -14 -435 -14 l-424 0 0 -429 c0 -400 -1 -429 -17 -433 -15 -4 -577 -3
-621 1 -10 1 -12 23 -10 89 l3 87 233 3 232 2 0 430 c0 337 3 430 13 431 6 1
190 3 407 4 217 2 405 4 418 4 l22 1 -2 723 -3 722 -269 5 -269 5 -5 73 c-2
40 -1 79 2 88 5 12 57 14 368 12 l363 -3 3 -894z"/>
</g>
</svg>
